<svg width="48" height="48" viewBox="0 0 48 48" fill="none" xmlns="http://www.w3.org/2000/svg">
<g id="Email">
<circle id="Circle" cx="24" cy="24" r="24" fill="white"/>
<path id="Vector" d="M24 11C16.824 11 11 16.824 11 24C11 31.176 16.824 37 24 37H30.5V34.4H24C18.358 34.4 13.6 29.642 13.6 24C13.6 18.358 18.358 13.6 24 13.6C29.642 13.6 34.4 18.358 34.4 24V25.859C34.4 26.886 33.477 27.9 32.45 27.9C31.423 27.9 30.5 26.886 30.5 25.859V24C30.5 20.412 27.588 17.5 24 17.5C20.412 17.5 17.5 20.412 17.5 24C17.5 27.588 20.412 30.5 24 30.5C25.794 30.5 27.432 29.772 28.602 28.589C29.447 29.746 30.903 30.5 32.45 30.5C35.011 30.5 37 28.42 37 25.859V24C37 16.824 31.176 11 24 11ZM24 27.9C21.842 27.9 20.1 26.158 20.1 24C20.1 21.842 21.842 20.1 24 20.1C26.158 20.1 27.9 21.842 27.9 24C27.9 26.158 26.158 27.9 24 27.9Z" fill="#3A3377"/>
</g>
</svg>
