<svg width="48" height="48" viewBox="0 0 48 48" fill="none" xmlns="http://www.w3.org/2000/svg">
<g id="GitHub">
<circle id="Circle" cx="24" cy="24" r="24" fill="white"/>
<path id="Vector" fill-rule="evenodd" clip-rule="evenodd" d="M24.0116 10C16.2635 10 10 16.3097 10 24.1157C10 30.3554 14.0133 35.6372 19.5807 37.5066C20.2768 37.6472 20.5318 37.2029 20.5318 36.8292C20.5318 36.502 20.5088 35.3803 20.5088 34.2115C16.6111 35.053 15.7995 32.5288 15.7995 32.5288C15.1731 30.8929 14.245 30.4724 14.245 30.4724C12.9693 29.6077 14.3379 29.6077 14.3379 29.6077C15.753 29.7012 16.4956 31.0567 16.4956 31.0567C17.748 33.2066 19.7663 32.5991 20.5782 32.2251C20.6941 31.3136 21.0655 30.6827 21.4599 30.3322C18.3512 30.005 15.0805 28.7898 15.0805 23.3677C15.0805 21.8253 15.6369 20.5633 16.5185 19.5819C16.3794 19.2314 15.8921 17.7822 16.6579 15.8425C16.6579 15.8425 17.841 15.4685 20.5085 17.2914C21.6506 16.9825 22.8284 16.8253 24.0116 16.824C25.1947 16.824 26.4007 16.9877 27.5143 17.2914C30.1822 15.4685 31.3653 15.8425 31.3653 15.8425C32.131 17.7822 31.6435 19.2314 31.5044 19.5819C32.4092 20.5633 32.9427 21.8253 32.9427 23.3677C32.9427 28.7898 29.672 29.9814 26.5401 30.3322C27.0506 30.7762 27.4911 31.6174 27.4911 32.9496C27.4911 34.8425 27.4682 36.3617 27.4682 36.8289C27.4682 37.2029 27.7234 37.6472 28.4192 37.5069C33.9867 35.6369 37.9999 30.3554 37.9999 24.1157C38.0229 16.3097 31.7364 10 24.0116 10Z" fill="#3A3377"/>
</g>
</svg>
