<svg width="48" height="48" viewBox="0 0 48 48" fill="none" xmlns="http://www.w3.org/2000/svg">
<g id="Instagram">
<circle id="Circle" cx="24" cy="24" r="24" fill="white"/>
<path id="Vector" d="M18.616 11.0909C17.2328 11.1562 16.2882 11.3769 15.4624 11.7014C14.6078 12.0345 13.8835 12.4814 13.1627 13.2047C12.442 13.9281 11.9982 14.653 11.6674 15.5089C11.3474 16.3365 11.1305 17.2818 11.0694 18.6658C11.0083 20.0498 10.9948 20.4947 11.0016 24.025C11.0083 27.5553 11.0239 27.9979 11.091 29.3847C11.1571 30.7677 11.377 31.712 11.7015 32.538C12.0351 33.3926 12.4815 34.1168 13.2051 34.8377C13.9287 35.5587 14.6531 36.0015 15.5111 36.3328C16.3379 36.6523 17.2835 36.8702 18.6672 36.9308C20.051 36.9913 20.4964 37.0054 24.0256 36.9986C27.5549 36.9919 27.9993 36.9763 29.3858 36.9105C30.7724 36.8447 31.7118 36.6232 32.5381 36.3003C33.3927 35.9659 34.1174 35.5202 34.8378 34.7964C35.5583 34.0726 36.0019 33.3471 36.3323 32.4907C36.6527 31.6639 36.8703 30.7183 36.9303 29.3356C36.9909 27.9479 37.0052 27.5049 36.9985 23.9751C36.9917 20.4453 36.9758 20.0028 36.9101 18.6164C36.8443 17.2301 36.6241 16.2886 36.2998 15.4621C35.9657 14.6075 35.5198 13.8839 34.7965 13.1624C34.0732 12.4409 33.3472 11.9975 32.4911 11.6679C31.6637 11.3478 30.7186 11.1297 29.3349 11.0699C27.9512 11.0101 27.5058 10.9947 23.9752 11.0015C20.4446 11.0082 20.0026 11.0233 18.616 11.0909ZM18.7679 34.592C17.5003 34.5369 16.8121 34.3263 16.3535 34.15C15.7461 33.916 15.3135 33.6331 14.8564 33.1805C14.3993 32.7278 14.1185 32.2936 13.8814 31.6875C13.7033 31.2289 13.4888 30.5415 13.4295 29.2739C13.365 27.904 13.3515 27.4927 13.3439 24.0219C13.3364 20.5511 13.3497 20.1403 13.4097 18.7698C13.4638 17.5034 13.6757 16.8144 13.8517 16.356C14.0857 15.7478 14.3676 15.316 14.8213 14.8591C15.275 14.4023 15.7079 14.121 16.3145 13.8839C16.7726 13.705 17.46 13.4923 18.727 13.432C20.098 13.367 20.5088 13.354 23.9791 13.3464C27.4493 13.3389 27.8612 13.3519 29.2327 13.4122C30.4992 13.4673 31.1884 13.6772 31.6463 13.8542C32.2539 14.0882 32.6863 14.3693 33.1431 14.8238C33.6 15.2783 33.8816 15.7096 34.1187 16.3175C34.2978 16.7743 34.5105 17.4615 34.5703 18.7293C34.6356 20.1003 34.6504 20.5113 34.6566 23.9813C34.6629 27.4513 34.6506 27.8634 34.5906 29.2334C34.5352 30.5009 34.3251 31.1894 34.1486 31.6485C33.9146 32.2557 33.6325 32.6886 33.1785 33.1451C32.7245 33.6017 32.2922 33.883 31.6853 34.1201C31.2277 34.2988 30.5395 34.512 29.2735 34.5723C27.9025 34.6368 27.4917 34.6503 24.0202 34.6578C20.5486 34.6654 20.1389 34.6513 18.7679 34.592ZM29.3658 17.052C29.3663 17.3606 29.4584 17.662 29.6302 17.9183C29.8021 18.1746 30.0461 18.3741 30.3314 18.4917C30.6167 18.6093 30.9304 18.6396 31.2329 18.5789C31.5355 18.5181 31.8132 18.3691 32.031 18.1505C32.2487 17.9319 32.3968 17.6536 32.4564 17.3509C32.5161 17.0481 32.4846 16.7345 32.366 16.4496C32.2473 16.1648 32.0469 15.9215 31.79 15.7506C31.5331 15.5797 31.2313 15.4888 30.9227 15.4894C30.5091 15.4902 30.1127 15.6553 29.8207 15.9483C29.5288 16.2414 29.3651 16.6383 29.3658 17.052ZM17.3251 24.0131C17.3324 27.6999 20.3266 30.6819 24.0126 30.6748C27.6987 30.6678 30.6827 27.6739 30.6757 23.9871C30.6687 20.3002 27.6737 17.3175 23.9872 17.3247C20.3006 17.332 17.3181 20.3267 17.3251 24.0131ZM19.6667 24.0084C19.665 23.1513 19.9175 22.313 20.3922 21.5994C20.867 20.8858 21.5427 20.329 22.3339 19.9995C23.1251 19.6699 23.9962 19.5824 24.8371 19.7479C25.6781 19.9135 26.451 20.3247 27.0583 20.9295C27.6655 21.5344 28.0798 22.3057 28.2487 23.146C28.4175 23.9862 28.3334 24.8577 28.007 25.6502C27.6806 26.4427 27.1265 27.1206 26.4148 27.5982C25.7031 28.0757 24.8658 28.3316 24.0087 28.3333C23.4396 28.3345 22.8759 28.2235 22.3497 28.0068C21.8234 27.7901 21.3451 27.4719 20.9418 27.0702C20.5386 26.6686 20.2185 26.1915 19.9997 25.6661C19.7809 25.1408 19.6677 24.5775 19.6667 24.0084Z" fill="#3A3377"/>
</g>
</svg>
