<svg width="1920" height="400" viewBox="0 0 1920 400" fill="none" xmlns="http://www.w3.org/2000/svg">
<path d="M0 118.689L194 79.4731L421.5 118.689L706.5 79.4731L908 0L1200 108.932L1427.5 154.889L1680 141.427L1920 164.844V399.839H1680H1440H1200H960H720H480H240H0V118.689Z" fill="#3D4A78"/>
<path d="M0 141.154L240 176.449L480 130.462L720 182.959L972 95L1152.5 176.449L1440 217.777L1655.5 164.684L1920 182.959V399.679H1680H1440H1200H960H720H480H240H0V141.154Z" fill="#323D66"/>
<path d="M0 249.042L240 188.326L460.5 230.048L726 219.188L1037 167L1242 215.454L1440 180.575L1680 237.415L1920 255.501V400.185H1680H1440H1200H960H720H480H240H0V249.042Z" fill="#273054"/>
<path d="M0 233L240 309.962L480 290.372L687 233L960 297.368L1200 251.191L1478 242.05L1680 283.375L1920 305.764V399.518H1680H1440H1200H960H720H480H240H0V233Z" fill="#1C2443"/>
<path d="M0 289.207L240 367.639L480 357.986L720 288L960 319.373L1200 295.24L1440 341.093L1680 345.919L1920 367.639V400.219H1680H1440H1200H960H720H480H240H0V289.207Z" fill="#121933"/>
</svg>
