<svg width="48" height="48" viewBox="0 0 48 48" fill="none" xmlns="http://www.w3.org/2000/svg">
<g id="Twitter">
<circle id="Circle" cx="24" cy="24" r="24" fill="white"/>
<path id="white_background" d="M34.3382 18.2594C34.3541 18.4886 34.3541 18.7178 34.3541 18.9492C34.3541 25.9976 28.9882 34.1267 19.1766 34.1267V34.1224C16.2782 34.1267 13.44 33.2964 11 31.7311C11.4215 31.7818 11.845 31.8071 12.2696 31.8082C14.6716 31.8103 17.0049 31.0043 18.8945 29.5203C16.6119 29.477 14.6103 27.9887 13.9111 25.816C14.7107 25.9702 15.5346 25.9385 16.3194 25.7241C13.8308 25.2213 12.0404 23.0348 12.0404 20.4955C12.0404 20.4723 12.0404 20.4501 12.0404 20.4279C12.7819 20.8409 13.6121 21.0702 14.4614 21.0955C12.1175 19.5291 11.395 16.411 12.8104 13.9731C15.5187 17.3056 19.5146 19.3315 23.8041 19.546C23.3742 17.6933 23.9614 15.7519 25.3473 14.4495C27.4957 12.4299 30.8747 12.5334 32.8943 14.6808C34.0889 14.4452 35.2339 14.0069 36.2817 13.3858C35.8835 14.6206 35.0501 15.6695 33.9368 16.336C34.9941 16.2113 36.0272 15.9282 37 15.4962C36.2839 16.5694 35.3818 17.5042 34.3382 18.2594Z" fill="#3A3377"/>
</g>
</svg>
